<svg width="37" height="31" viewBox="0 0 37 31" fill="none" xmlns="http://www.w3.org/2000/svg">
<path d="M14.473 10.434L19.5051 6.93409C22.8597 4.60084 28.4591 10.0643 32.6494 11.6289C33.1372 11.8849 33.6747 12.0284 34.2223 12.0489C34.7699 12.0695 35.3137 11.9665 35.8137 11.7475L30.7417 15.2752C27.7108 17.0233 21.8632 11.0327 17.5104 10.0011C17.0002 9.85096 16.4651 9.81194 15.9412 9.88661C15.4173 9.96128 14.9167 10.1479 14.473 10.434Z" fill="#41C66E"/>
<path d="M14.4741 10.4349C14.9178 10.1489 15.4184 9.96222 15.9423 9.88754C16.4662 9.81287 17.0012 9.8519 17.5115 10.002C16.2354 14.3288 17.1718 21.2958 11.3529 26.7026C10.7518 27.2678 10.11 27.7877 9.43259 28.2582C8.61696 28.8207 7.74922 29.3037 6.841 29.7008C13.6999 22.7508 10.1343 13.4533 14.4741 10.4349Z" fill="#41C66E"/>
</svg>
