<svg width="62" height="67" viewBox="0 0 62 67" fill="none" xmlns="http://www.w3.org/2000/svg">
<path d="M18.6976 33.7145L13.1906 31.0235C9.51926 29.2295 11.5679 21.6797 10.8956 17.2585C10.8819 16.7079 10.7457 16.1686 10.4971 15.6804C10.2486 15.1921 9.89392 14.7673 9.45929 14.4372L15.01 17.1496C18.0125 18.9457 15.6241 26.9689 16.8411 31.2726C16.9583 31.7912 17.1846 32.2775 17.5048 32.6987C17.825 33.1199 18.2317 33.4663 18.6976 33.7145Z" fill="#FFB75C"/>
<path d="M18.7024 33.711C18.2366 33.4627 17.83 33.1164 17.5098 32.6952C17.1896 32.2739 16.9633 31.7876 16.8461 31.269C21.2468 30.2777 26.8772 26.069 34.4323 28.5195C35.2185 28.7694 35.985 29.0769 36.7258 29.4395C37.614 29.8781 38.4583 30.4009 39.2472 31.0008C29.8379 28.3931 23.4513 36.0321 18.7024 33.711Z" fill="#FFB75C"/>
<path d="M52.2188 51.6131L46.7121 48.9215C46.7121 48.9215 47.3321 37.0921 39.2308 30.9945C38.4461 30.3978 37.6067 29.8774 36.7237 29.4402L42.2741 32.1531C52.96 37.431 52.2188 51.6131 52.2188 51.6131Z" fill="#FFB75C"/>
</svg>
