<svg width="58" height="58" viewBox="0 0 58 58" fill="none" xmlns="http://www.w3.org/2000/svg">
<g opacity="0.5">
<path d="M30.963 23.2492C27.4804 23.8883 23.8886 23.6728 20.5019 22.6218C19.0432 22.1092 18.4927 21.6594 18.5595 21.3041C18.7718 20.1757 25.3923 20.1452 30.963 23.2492Z" fill="#4A73DC"/>
<path d="M37.5956 33.0464L37.5287 33.4017C37.4309 33.7913 37.3006 34.1722 37.1393 34.5403C36.9514 34.9187 36.7364 35.2832 36.496 35.6312C36.2641 34.7943 35.9045 33.9968 35.4296 33.2663C34.068 31.19 32.2071 29.4787 30.0145 28.2867C31.8534 27.9775 33.6489 27.4585 35.3651 26.7401C35.7624 27.212 36.13 27.7076 36.4658 28.2241C37.1058 29.1907 37.5281 30.2815 37.704 31.422C37.7411 31.9662 37.7046 32.5124 37.5956 33.0464Z" fill="#4A73DC"/>
<path d="M42.1419 16.1119C41.9573 17.0155 41.5351 17.8541 40.9178 18.5434C40.2084 17.0367 39.1176 15.7355 37.7516 14.7661L38.6836 9.8125C41.55 12.04 42.5037 14.1889 42.1419 16.1119Z" fill="#4A73DC"/>
<path d="M42.1357 16.1334L41.1998 21.108C40.7633 23.428 38.4441 25.3937 35.2806 26.7244C33.5932 27.4198 31.8305 27.923 30.0264 28.2242C26.5437 28.8635 22.9518 28.6481 19.5652 27.597C18.1065 27.0844 17.556 26.6345 17.6228 26.2792L18.5587 21.3046C18.4919 21.6599 19.0636 22.1138 20.5011 22.6224C23.8877 23.6736 27.4796 23.889 30.9623 23.2497C34.7017 22.8276 38.1926 21.204 40.8998 18.6277C41.5314 17.9222 41.9583 17.0605 42.1357 16.1334Z" fill="#4A73DC"/>
<path d="M37.5317 33.4033L36.58 38.4615C36.2808 39.454 35.7795 40.3747 35.1069 41.1673C34.4343 41.9598 33.6045 42.6075 32.6683 43.0706C31.4146 43.7853 30.0738 44.3401 28.678 44.7218C24.3395 45.811 19.7767 45.7008 15.4865 44.403C13.2914 43.7302 12.3994 42.9996 12.4327 42.3566L13.3843 37.2985C13.2703 37.9046 14.243 38.672 16.4381 39.3449C20.7267 40.6525 25.2923 40.7628 29.6296 39.6637C32.3172 39.0961 34.7353 37.6641 36.5068 35.591C36.7472 35.2431 36.9622 34.8785 37.1501 34.5001C37.3066 34.1453 37.4342 33.7785 37.5317 33.4033Z" fill="#4A73DC"/>
</g>
</svg>
