<svg width="12" height="12" viewBox="0 0 12 12" fill="none" xmlns="http://www.w3.org/2000/svg">
<path fill-rule="evenodd" clip-rule="evenodd" d="M0.135181 0.135181C0.315423 -0.0450605 0.607653 -0.0450605 0.787895 0.135181L6 5.34729L11.2121 0.135181C11.3923 -0.0450605 11.6846 -0.0450605 11.8648 0.135181C12.0451 0.315423 12.0451 0.607653 11.8648 0.787895L6.65271 6L11.8648 11.2121C12.0451 11.3923 12.0451 11.6846 11.8648 11.8648C11.6846 12.0451 11.3923 12.0451 11.2121 11.8648L6 6.65271L0.787895 11.8648C0.607653 12.0451 0.315423 12.0451 0.135181 11.8648C-0.0450605 11.6846 -0.0450605 11.3923 0.135181 11.2121L5.34729 6L0.135181 0.787895C-0.0450605 0.607653 -0.0450605 0.315423 0.135181 0.135181Z" fill="black"/>
</svg>
