<svg width="24" height="24" viewBox="0 0 24 24" fill="none" xmlns="http://www.w3.org/2000/svg">
<path fill-rule="evenodd" clip-rule="evenodd" d="M12.0001 4.38462C10.0549 4.38462 8.49963 5.94639 8.49963 7.84615C8.49963 9.74592 10.0549 11.3077 12.0001 11.3077C13.9453 11.3077 15.5005 9.74592 15.5005 7.84615C15.5005 5.94639 13.9453 4.38462 12.0001 4.38462ZM7.13007 7.84615C7.13007 5.15771 9.32241 3 12.0001 3C14.6777 3 16.8701 5.15771 16.8701 7.84615C16.8701 10.5346 14.6777 12.6923 12.0001 12.6923C9.32241 12.6923 7.13007 10.5346 7.13007 7.84615ZM4.125 20.3077C4.125 16.5737 7.80521 13.8 12 13.8C16.1948 13.8 19.875 16.5737 19.875 20.3077C19.875 20.69 19.5684 21 19.1902 21C18.812 21 18.5054 20.69 18.5054 20.3077C18.5054 17.6116 15.7404 15.1846 12 15.1846C8.2596 15.1846 5.49457 17.6116 5.49457 20.3077C5.49457 20.69 5.18798 21 4.80978 21C4.43159 21 4.125 20.69 4.125 20.3077Z" fill="#365069"/>
</svg>
