<svg width="20" height="20" viewBox="0 0 20 20" fill="none" xmlns="http://www.w3.org/2000/svg">
<path d="M16.5067 12.6133L12.24 4.93325C11.6667 3.89992 10.8733 3.33325 9.99998 3.33325C9.12665 3.33325 8.33332 3.89992 7.75998 4.93325L3.49332 12.6133C2.95332 13.5933 2.89332 14.5333 3.32665 15.2733C3.75999 16.0133 4.61332 16.4199 5.73332 16.4199H14.2667C15.3867 16.4199 16.24 16.0133 16.6733 15.2733C17.1067 14.5333 17.0467 13.5866 16.5067 12.6133ZM9.49998 7.99992C9.49998 7.72659 9.72665 7.49992 9.99998 7.49992C10.2733 7.49992 10.5 7.72659 10.5 7.99992V11.3333C10.5 11.6066 10.2733 11.8333 9.99998 11.8333C9.72665 11.8333 9.49998 11.6066 9.49998 11.3333V7.99992ZM10.4733 13.8066C10.44 13.8333 10.4067 13.8599 10.3733 13.8866C10.3333 13.9133 10.2933 13.9333 10.2533 13.9466C10.2133 13.9666 10.1733 13.9799 10.1267 13.9866C10.0867 13.9933 10.04 13.9999 9.99998 13.9999C9.95998 13.9999 9.91332 13.9933 9.86665 13.9866C9.82665 13.9799 9.78665 13.9666 9.74665 13.9466C9.70665 13.9333 9.66665 13.9133 9.62665 13.8866C9.59332 13.8599 9.55998 13.8333 9.52665 13.8066C9.40665 13.6799 9.33332 13.5066 9.33332 13.3333C9.33332 13.1599 9.40665 12.9866 9.52665 12.8599C9.55998 12.8333 9.59332 12.8066 9.62665 12.7799C9.66665 12.7533 9.70665 12.7333 9.74665 12.7199C9.78665 12.6999 9.82665 12.6866 9.86665 12.6799C9.95332 12.6599 10.0467 12.6599 10.1267 12.6799C10.1733 12.6866 10.2133 12.6999 10.2533 12.7199C10.2933 12.7333 10.3333 12.7533 10.3733 12.7799C10.4067 12.8066 10.44 12.8333 10.4733 12.8599C10.5933 12.9866 10.6667 13.1599 10.6667 13.3333C10.6667 13.5066 10.5933 13.6799 10.4733 13.8066Z" fill="#F26841"/>
</svg>