<svg width="21" height="20" viewBox="0 0 21 20" fill="none" xmlns="http://www.w3.org/2000/svg">
<path fill-rule="evenodd" clip-rule="evenodd" d="M12.8875 4.01743C13.6506 3.91984 14.4273 4.23084 15.2225 4.97906L15.2233 4.97987C16.0212 5.73447 16.3788 6.49425 16.325 7.26335C16.2729 8.00823 15.8407 8.64182 15.3415 9.16916L9.86578 14.965C9.71535 15.1288 9.51147 15.2688 9.31666 15.373C9.1195 15.4784 8.89258 15.5679 8.68103 15.6055L8.67796 15.6061L6.52998 15.973C6.01957 16.0609 5.53292 15.9331 5.18724 15.6053C4.84199 15.2779 4.68799 14.7992 4.745 14.2861L4.74516 14.2847L4.99304 12.114C5.02116 11.9031 5.09981 11.6733 5.19331 11.4728C5.2865 11.273 5.41297 11.0627 5.56131 10.9048L5.56221 10.9038L11.0407 5.10501C11.54 4.57754 12.1485 4.11193 12.8875 4.01743ZM11.7116 5.73898L10.6045 6.9109C10.8945 8.32271 12.0705 9.38826 13.5201 9.53426C13.5782 9.54012 13.6328 9.55655 13.6821 9.58145L14.6708 8.5349C15.1191 8.0613 15.3745 7.62355 15.4042 7.19899C15.4321 6.79875 15.2659 6.29079 14.5895 5.65095C13.9169 5.0182 13.4024 4.88218 13.0045 4.93305C12.5825 4.98702 12.1597 5.26572 11.7116 5.73898ZM12.9336 10.3736C11.5146 10.0602 10.3596 9.04289 9.86804 7.69037L6.23409 11.5368C6.17563 11.5992 6.09836 11.7161 6.02989 11.8629C5.96249 12.0074 5.92115 12.1429 5.9086 12.2323L5.66243 14.388C5.6329 14.6553 5.71567 14.8343 5.82243 14.9355C5.92881 15.0364 6.10953 15.1088 6.37314 15.0633L8.51946 14.6967L8.52076 14.6965C8.60949 14.6805 8.7423 14.6333 8.88144 14.5589C9.02229 14.4836 9.13058 14.4013 9.18673 14.3397L9.19224 14.3336L12.9336 10.3736Z" fill="white"/>
</svg>
