<svg width="24" height="24" viewBox="0 0 24 24" fill="none" xmlns="http://www.w3.org/2000/svg">
<path fill-rule="evenodd" clip-rule="evenodd" d="M2.75977 9.49232C5.05574 6.3531 8.38758 4.5 12 4.5C15.6126 4.5 18.9445 6.35324 21.2405 9.4927C21.76 10.201 22 11.1165 22 12C22 12.8836 21.7599 13.7994 21.2402 14.5077C18.9443 17.6469 15.6124 19.5 12 19.5C8.38744 19.5 5.05547 17.6468 2.7595 14.5073C2.24005 13.799 2 12.8834 2 12C2 11.1164 2.24013 10.2006 2.75977 9.49232ZM12 5.65385C8.82186 5.65385 5.82481 7.28096 3.71548 10.1652C3.36964 10.6365 3.17647 11.3025 3.17647 12C3.17647 12.6975 3.36909 13.3628 3.71492 13.834C5.82425 16.7183 8.82186 18.3462 12 18.3462C15.1781 18.3462 18.1752 16.719 20.2845 13.8348C20.6304 13.3635 20.8235 12.6975 20.8235 12C20.8235 11.3025 20.6309 10.6372 20.2851 10.166C18.1757 7.28172 15.1781 5.65385 12 5.65385ZM12 9.11531C10.3728 9.11531 9.05881 10.4041 9.05881 11.9999C9.05881 13.5958 10.3728 14.8845 12 14.8845C13.6271 14.8845 14.9412 13.5958 14.9412 11.9999C14.9412 10.4041 13.6271 9.11531 12 9.11531ZM7.88234 11.9999C7.88234 9.76682 9.72309 7.96146 12 7.96146C14.2769 7.96146 16.1176 9.76682 16.1176 11.9999C16.1176 14.233 14.2769 16.0384 12 16.0384C9.72309 16.0384 7.88234 14.233 7.88234 11.9999Z" fill="black"/>
</svg>
