<svg width="24" height="24" viewBox="0 0 24 24" fill="none" xmlns="http://www.w3.org/2000/svg">
<path d="M18.5453 0H5.45451C4.00841 0.0017322 2.62205 0.576958 1.5995 1.5995C0.576958 2.62205 0.0017322 4.00841 0 5.45451V14.1817C0.00158674 15.4387 0.436459 16.6566 1.23132 17.6303C2.02618 18.604 3.13243 19.2739 4.36361 19.5271V22.9089C4.36358 23.1064 4.41716 23.3002 4.51865 23.4697C4.62014 23.6391 4.76572 23.7778 4.93986 23.871C5.114 23.9641 5.31017 24.0083 5.50743 23.9987C5.7047 23.9891 5.89567 23.9262 6.05996 23.8166L12.3272 19.6362H18.5453C19.9914 19.6345 21.3778 19.0593 22.4003 18.0367C23.4229 17.0142 23.9981 15.6278 23.9998 14.1817V5.45451C23.9981 4.00841 23.4229 2.62205 22.4003 1.5995C21.3778 0.576958 19.9914 0.0017322 18.5453 0ZM16.3635 13.0908H7.63631C7.34699 13.0908 7.06951 12.9759 6.86493 12.7713C6.66034 12.5667 6.54541 12.2892 6.54541 11.9999C6.54541 11.7106 6.66034 11.4331 6.86493 11.2285C7.06951 11.024 7.34699 10.909 7.63631 10.909H16.3635C16.6528 10.909 16.9303 11.024 17.1349 11.2285C17.3395 11.4331 17.4544 11.7106 17.4544 11.9999C17.4544 12.2892 17.3395 12.5667 17.1349 12.7713C16.9303 12.9759 16.6528 13.0908 16.3635 13.0908ZM18.5453 8.72721H5.45451C5.16518 8.72721 4.88771 8.61228 4.68312 8.40769C4.47854 8.20311 4.36361 7.92564 4.36361 7.63631C4.36361 7.34699 4.47854 7.06951 4.68312 6.86493C4.88771 6.66034 5.16518 6.54541 5.45451 6.54541H18.5453C18.8347 6.54541 19.1121 6.66034 19.3167 6.86493C19.5213 7.06951 19.6362 7.34699 19.6362 7.63631C19.6362 7.92564 19.5213 8.20311 19.3167 8.40769C19.1121 8.61228 18.8347 8.72721 18.5453 8.72721Z" fill="#365069"/>
</svg>
