<svg width="12" height="12" viewBox="0 0 12 12" fill="none" xmlns="http://www.w3.org/2000/svg">
<path fill-rule="evenodd" clip-rule="evenodd" d="M5.44837 1.46708L4.47501 3.4299C4.36757 3.65002 4.18905 3.83671 4.00702 3.97279C3.82459 4.10917 3.59592 4.22666 3.35801 4.26739L3.35638 4.26767L1.5903 4.56352C1.10755 4.64469 0.966663 4.83307 0.936326 4.92886C0.905426 5.02642 0.913276 5.26495 1.26008 5.61462L2.63327 6.99915C2.81831 7.18573 2.94057 7.43336 3.00771 7.66983C3.07493 7.90661 3.10057 8.18032 3.04402 8.43474L3.04334 8.43777L2.6502 10.1517C2.50441 10.7869 2.65767 10.9966 2.71059 11.0355C2.76117 11.0727 3.00194 11.1577 3.55813 10.8249L5.21715 9.8347C5.45644 9.69433 5.74126 9.63729 6.0009 9.63729C6.26004 9.63729 6.54518 9.69416 6.78349 9.83649L8.43869 10.8244C8.99991 11.1587 9.24012 11.0736 9.28928 11.0375C9.34035 11 9.49369 10.7919 9.34743 10.1517M9.34743 10.1517L8.95361 8.43474C8.89705 8.18032 8.9227 7.90661 8.98993 7.66983C9.05706 7.43337 9.17932 7.18573 9.36437 6.99915L10.7376 5.61462L10.7387 5.6135C11.0877 5.26394 11.0944 5.02617 11.0637 4.92969C11.033 4.83353 10.8908 4.64481 10.4076 4.56356L8.64126 4.26767C8.40105 4.2273 8.1706 4.1103 7.98663 3.97343C7.80332 3.83706 7.6246 3.65016 7.51709 3.4299L6.54287 1.46536C6.31229 0.997937 6.08738 0.922941 5.99813 0.922941C5.90806 0.922941 5.68165 0.999387 5.44837 1.46708M7.37038 1.05665C7.07493 0.457956 6.60501 0 5.99813 0C5.39194 0 4.92058 0.457125 4.62238 1.05533L3.64743 3.02133L3.64577 3.02471C3.62022 3.07731 3.55562 3.15791 3.4544 3.23358C3.35342 3.30907 3.2585 3.3479 3.20286 3.35759L1.43758 3.6533C0.790959 3.76196 0.236523 4.08165 0.0564583 4.6502C-0.123049 5.21698 0.143184 5.79913 0.604784 6.26455L1.97797 7.64908C2.02548 7.69698 2.08317 7.79268 2.11986 7.9219C2.15625 8.05008 2.15847 8.16381 2.14332 8.23331L2.14307 8.23446L1.75064 9.94529C1.58637 10.6611 1.63797 11.3922 2.16365 11.7789C2.69169 12.1674 3.40329 11.9931 4.03203 11.6169L5.68415 10.6308L5.68529 10.6301C5.75072 10.5921 5.86404 10.5602 6.0009 10.5602C6.13896 10.5602 6.24965 10.5927 6.31029 10.6289L7.96605 11.6172C8.59529 11.9919 9.30783 12.1693 9.8359 11.7812C10.3621 11.3944 10.4108 10.6618 10.2471 9.94569L9.85457 8.23446L9.85432 8.23335C9.83916 8.16387 9.84138 8.05011 9.87778 7.9219C9.91446 7.79269 9.97216 7.69698 10.0197 7.64908L11.3917 6.26566C11.8563 5.80023 12.124 5.21702 11.943 4.64936C11.7619 4.08119 11.2064 3.76192 10.5603 3.65334L8.79398 3.35745C8.73518 3.34754 8.63865 3.30817 8.53753 3.23294C8.43621 3.15756 8.37181 3.07717 8.34633 3.02471L7.37038 1.05665Z" fill="black"/>
</svg>
