<svg width="32" height="32" viewBox="0 0 32 32" fill="none" xmlns="http://www.w3.org/2000/svg">
<path fill-rule="evenodd" clip-rule="evenodd" d="M16 0C18.98 0.034006 21.6722 0.766412 24.0765 2.19722C26.4521 3.59946 28.4283 5.58772 29.816 7.97186C31.2381 10.3907 31.9661 13.0991 32 16.0973C31.9155 20.1996 30.6217 23.7033 28.1184 26.6085C25.6151 29.5137 22.4089 31.311 19.09 32V20.4986H22.2278L22.9374 15.9788H18.186V13.0185C18.1596 12.4048 18.3537 11.8019 18.7332 11.3188C19.1131 10.8344 19.7823 10.5799 20.7406 10.5551H23.6097V6.59583C23.5686 6.58259 23.1779 6.53021 22.4378 6.4387C21.5985 6.34049 20.7544 6.28804 19.9093 6.28157C17.9967 6.29039 16.4841 6.82991 15.3714 7.90013C14.2587 8.97004 13.6904 10.518 13.6663 12.5439V15.9788H10.0504V20.4986H13.6663V32C9.59105 31.311 6.38491 29.5137 3.8816 26.6085C1.37829 23.7033 0.0844681 20.1996 0 16.0973C0.033795 13.099 0.761772 10.3905 2.18393 7.97186C3.57168 5.58772 5.54786 3.59946 7.92351 2.19722C10.3277 0.766687 13.0199 0.0342815 16 0Z" fill="#F26841"/>
</svg>
