<svg width="32" height="32" viewBox="0 0 32 32" fill="none" xmlns="http://www.w3.org/2000/svg">
<g clip-path="url(#clip0_1161_45156)">
<path d="M16.0056 7.78125C11.4683 7.78125 7.79492 11.4586 7.79492 15.9919C7.79492 20.5293 11.4723 24.2026 16.0056 24.2026C20.5429 24.2026 24.2163 20.5253 24.2163 15.9919C24.2163 11.4546 20.5389 7.78125 16.0056 7.78125ZM16.0056 21.3213C13.0603 21.3213 10.6763 18.9359 10.6763 15.9919C10.6763 13.0479 13.0616 10.6626 16.0056 10.6626C18.9496 10.6626 21.3349 13.0479 21.3349 15.9919C21.3363 18.9359 18.9509 21.3213 16.0056 21.3213Z" fill="#F26841"/>
<path d="M22.5976 0.100516C19.6536 -0.0368178 12.3616 -0.0301511 9.41497 0.100516C6.82564 0.221849 4.54164 0.847182 2.7003 2.68852C-0.37703 5.76585 0.016303 9.91252 0.016303 15.9938C0.016303 22.2178 -0.330364 26.2685 2.7003 29.2992C5.78964 32.3872 9.9963 31.9832 16.0056 31.9832C22.171 31.9832 24.299 31.9872 26.479 31.1432C29.443 29.9925 31.6803 27.3432 31.899 22.5845C32.0376 19.6392 32.0296 12.3485 31.899 9.40185C31.635 3.78452 28.6203 0.377849 22.5976 0.100516ZM27.2576 27.2632C25.2403 29.2805 22.4416 29.1005 15.967 29.1005C9.3003 29.1005 6.62697 29.1992 4.6763 27.2432C2.42964 25.0072 2.8363 21.4165 2.8363 15.9725C2.8363 8.60585 2.0803 3.30052 9.47364 2.92185C11.1723 2.86185 11.6723 2.84185 15.9483 2.84185L16.0083 2.88185C23.1136 2.88185 28.6883 2.13785 29.023 9.52985C29.099 11.2165 29.1163 11.7232 29.1163 15.9925C29.115 22.5819 29.2403 25.2712 27.2576 27.2632Z" fill="#F26841"/>
<path d="M24.5417 9.37639C25.6014 9.37639 26.4604 8.51737 26.4604 7.45773C26.4604 6.39808 25.6014 5.53906 24.5417 5.53906C23.4821 5.53906 22.623 6.39808 22.623 7.45773C22.623 8.51737 23.4821 9.37639 24.5417 9.37639Z" fill="#F26841"/>
</g>
<defs>
<clipPath id="clip0_1161_45156">
<rect width="32" height="32" fill="white"/>
</clipPath>
</defs>
</svg>
