<svg width="19" height="32" viewBox="0 0 19 32" fill="none" xmlns="http://www.w3.org/2000/svg">
<path fill-rule="evenodd" clip-rule="evenodd" d="M1.76389 11.0344C2.12835 6.73915 0 5.43717 0 5.43717C0 5.43717 0.501947 7.25908 0.135316 11.9319C-0.114848 15.1183 1.02285 17.5875 1.68427 19.1132C1.77812 19.3298 2.09787 19.1617 2.03819 18.937C1.43918 16.6805 1.46244 14.5859 1.76389 11.0344ZM11.9734 31.34C14.766 28.7967 18.7394 21.2218 18.8121 15.4784C18.1671 15.6687 16.888 16.3558 16.415 18.4789C16.1434 19.6985 15.3779 22.5787 12.5595 22.3306C8.65159 21.9864 9.21826 14.6097 15.3377 15.2786C18.2296 15.5945 18.6996 13.517 18.6996 13.239C18.0655 13.5294 17.1111 13.4087 16.2144 13.3009C10.7006 12.6391 8.05383 15.7914 8.05383 19.3887C8.05383 21.5486 9.45945 23.3638 11.0453 24.3725C11.8882 24.9087 11.2818 25.4334 10.6554 24.9822C8.98798 23.7809 7.04046 22.1933 7.04046 18.8093C7.04046 13.1601 12.8138 10.7059 14.1697 9.69625C16.1821 8.19824 17.1514 6.962 16.6607 4.75807C15.8645 6.2219 13.9091 7.50051 12.4498 8.27495C8.50666 10.3678 5.41587 13.4146 5.41587 17.8892C5.41587 21.4089 6.96424 23.3432 8.8249 24.8414C9.24664 25.1811 8.79954 25.6561 8.25929 25.2214C5.29892 22.8395 4.32128 20.2 4.32128 16.8098C4.32128 10.4049 12.4104 4.61329 8.77305 0C8.82341 4.71006 2.72369 8.82383 2.72369 16.616C2.72369 20.1143 4.13075 23.587 8.05301 26.333C10.3636 27.9505 10.6912 29.8037 10.3528 31.4815C10.2016 32.3875 11.3002 31.9531 11.9734 31.34Z" fill="#F58667"/>
</svg>
