<svg width="14" height="14" viewBox="0 0 14 14" fill="none" xmlns="http://www.w3.org/2000/svg">
<path d="M7.46154 1.46154C7.46154 1.20664 7.2549 1 7 1C6.7451 1 6.53846 1.20664 6.53846 1.46154V6.53846H1.46154C1.20664 6.53846 1 6.7451 1 7C1 7.2549 1.20664 7.46154 1.46154 7.46154H6.53846V12.5385C6.53846 12.7934 6.7451 13 7 13C7.2549 13 7.46154 12.7934 7.46154 12.5385V7.46154H12.5385C12.7934 7.46154 13 7.2549 13 7C13 6.7451 12.7934 6.53846 12.5385 6.53846H7.46154V1.46154Z" stroke='white' fill="white"/>
</svg>
