<svg width="32" height="32" viewBox="0 0 32 32" fill="none" xmlns="http://www.w3.org/2000/svg">
<g clip-path="url(#clip0_1161_45164)">
<path d="M9.06374 29.0065C21.1398 29.0065 27.7437 19.0019 27.7437 10.3266C27.7437 10.0424 27.7378 9.75945 27.7251 9.47804C29.0069 8.55124 30.1209 7.39469 31 6.07826C29.8237 6.60135 28.5575 6.95301 27.2298 7.11211C28.5851 6.299 29.6258 5.01329 30.1166 3.48062C28.8482 4.23267 27.4433 4.77905 25.9478 5.07416C24.7497 3.79804 23.0439 3 21.1552 3C17.5298 3 14.5895 5.9401 14.5895 9.56434C14.5895 10.0798 14.6473 10.5808 14.7598 11.0614C9.30326 10.7868 4.46455 8.17453 1.2268 4.20195C0.663199 5.172 0.337957 6.2992 0.337957 7.50193C0.337957 9.77941 1.49705 11.7906 3.25947 12.9667C2.18237 12.9336 1.17063 12.6379 0.286098 12.1457C0.285119 12.1733 0.285119 12.2001 0.285119 12.2295C0.285119 15.4091 2.54812 18.0639 5.5526 18.6655C5.00075 18.8156 4.42012 18.8964 3.8213 18.8964C3.39899 18.8964 2.98726 18.8549 2.58726 18.778C3.42306 21.3866 5.84692 23.2848 8.72049 23.338C6.47334 25.0993 3.64263 26.1484 0.566135 26.1484C0.0369799 26.1484 -0.486109 26.1181 -1 26.0574C1.90566 27.9198 5.35593 29.0067 9.06393 29.0067" fill="#F26841"/>
</g>
<defs>
<clipPath id="clip0_1161_45164">
<rect width="32" height="32" fill="white"/>
</clipPath>
</defs>
</svg>
