<svg width="45" height="32" viewBox="0 0 45 32" fill="none" xmlns="http://www.w3.org/2000/svg">
<path d="M44.0044 4.57226L44.0606 4.9412C43.5169 3.00426 42.0488 1.50967 40.1832 0.965672L40.1438 0.95626C36.6357 2.58053e-05 22.519 2.60142e-05 22.519 2.60142e-05C22.519 2.60142e-05 8.43795 -0.0187977 4.89424 0.95626C2.99301 1.50967 1.52303 3.00426 0.988665 4.90167L0.97929 4.9412C-0.331319 11.8137 -0.340694 20.0715 1.03741 27.4297L0.97929 27.0569C1.52303 28.9939 2.99114 30.4885 4.85674 31.0325L4.89612 31.0419C8.40045 32 22.5209 32 22.5209 32C22.5209 32 36.6001 32 40.1457 31.0419C42.0488 30.4885 43.5188 28.9939 44.0531 27.0965L44.0625 27.0569C44.6588 23.8607 45 20.1826 45 16.4254C45 16.288 45 16.1487 44.9981 16.0094C45 15.8814 45 15.729 45 15.5765C45 11.8174 44.6588 8.13931 44.0044 4.57226ZM18.0153 22.8725V9.14449L29.7639 16.0188L18.0153 22.8725Z" fill="#F26841"/>
</svg>
